<svg width="435" height="265" viewBox="0 0 435 265" fill="none" xmlns="http://www.w3.org/2000/svg">
<rect width="435" height="265" fill="white"/>
<rect width="435" height="265" fill="white"/>
<path d="M80.5714 68.9184H355.429C361.267 68.9184 366 65.2455 366 60.7143V40.2041C366 35.6729 361.267 32 355.429 32H80.5714C74.7327 32 70 35.6729 70 40.2041V60.7143C70 65.2455 74.7327 68.9184 80.5714 68.9184ZM80.5714 150.959H355.429C361.267 150.959 366 147.286 366 142.755V122.245C366 117.714 361.267 114.041 355.429 114.041H80.5714C74.7327 114.041 70 117.714 70 122.245V142.755C70 147.286 74.7327 150.959 80.5714 150.959ZM80.5714 233H355.429C361.267 233 366 229.327 366 224.796V204.286C366 199.754 361.267 196.082 355.429 196.082H80.5714C74.7327 196.082 70 199.754 70 204.286V224.796C70 229.327 74.7327 233 80.5714 233Z" fill="white"/>
</svg>
